# xmcd CD database file
#
# Track frame offsets:
#	150
#	12636
#	22954
#	36422
#	51561
#	65524
#	79522
#	92428
#	107942
#	123028
#	138055
#	153319
#	167362
#	181155
#	192767
#	205336
#	217639
#	231667
#	246433
#	259704
#	273800
#	288588
#
# Disc length: 4013 seconds
#
# Revision: 0
# Processed by: cddbd v1.4PL0 Copyright (c) Steve Scherf et al.
# Submitted via: CDex 1.50
#
DISCID=2e0fab16
DTITLE=Duke Ellington - Vol 8 - 1929
DYEAR=1996
DGENRE=Jazz
TTITLE0=Doin' The Voom Voom
TTITLE1=Flaming Youth
TTITLE2=Saturday Night Function
TTITLE3=Ain't Missbehavin'
TTITLE4=Doin' The New Low-Down
TTITLE5=Jolly Wog
TTITLE6=Jazz Convulsions
TTITLE7=Mississippi Dry
TTITLE8=The Duke Steps Out
TTITLE9=Haunted Nights
TTITLE10=Swanee Shuffle
TTITLE11=Six Or Seven Times
TTITLE12=Six Or Seven Times
TTITLE13=Goin' Nuts
TTITLE14=Oklahoma Stomp
TTITLE15=Oklahoma Stomp
TTITLE16=Breakfast Dance
TTITLE17=Jazz Lips
TTITLE18=March Of The Hoodlums
TTITLE19=Lazy Duke
TTITLE20=Blues Of The Vagabond
TTITLE21=Syncopated Shuffle
EXTD=YEAR: 1996
EXTT0=
EXTT1=
EXTT2=
EXTT3=
EXTT4=
EXTT5=
EXTT6=
EXTT7=
EXTT8=
EXTT9=
EXTT10=
EXTT11=
EXTT12=
EXTT13=
EXTT14=
EXTT15=
EXTT16=
EXTT17=
EXTT18=
EXTT19=
EXTT20=
EXTT21=
PLAYORDER=
